<svg width="730" height="654" viewBox="0 0 730 654" fill="none" xmlns="http://www.w3.org/2000/svg">
<path d="M561.479 143.725L421.882 276.288C389.773 306.868 339.317 306.868 307.208 276.288L167.611 143.725C113.026 91.8922 149.722 0 224.948 0C224.948 77.061 287.484 139.597 364.545 139.597C441.759 139.597 504.142 77.061 504.142 0C579.368 0.152899 616.064 92.0451 561.479 143.725Z" fill="#F37021"/>
<path d="M424.94 590.19L379.988 403.042C369.591 359.924 394.819 316.348 437.325 303.657L621.874 248.919C694.042 227.514 755.202 305.186 717.589 370.474C650.772 331.944 565.454 354.725 526.924 421.542C488.393 488.359 511.175 573.677 577.992 612.36C540.379 677.495 442.524 663.275 424.94 590.19Z" fill="#F37021"/>
<path d="M107.216 247.849L291.765 302.587C334.271 315.125 359.499 358.854 349.102 401.971L304.15 589.119C286.567 662.358 188.711 676.425 151.098 611.29C217.915 572.759 240.697 487.289 202.166 420.625C163.636 353.808 78.1655 330.873 11.5016 369.557C-26.2645 304.269 35.048 226.443 107.216 247.849Z" fill="#F37021"/>
</svg>
