<svg width="728" height="118" viewBox="0 0 728 118" fill="none" xmlns="http://www.w3.org/2000/svg">
<path d="M208 62.5C211.1 65.5 212.7 69.5 212.7 74.5C212.7 79.4 211.4 83.5 208.9 86.9C206.4 90.3 203 92.9 198.7 94.6C194.4 96.3 189.6 97.2 184.2 97.2C175.2 97.2 168 95.1 162.5 90.8C157 86.6 154.2 80.1 154.1 71.5H169.5C169.6 76.2 170.9 79.6 173.5 81.7C176.1 83.9 179.6 84.9 183.9 84.9C187.8 84.9 190.8 83.9 192.9 82C195 80.1 196.1 77.4 196.1 74C196.1 70.6 195 68 192.9 66.2C190.7 64.4 187.7 63.5 183.7 63.5H177.5V52.1H184.1C187.7 52.1 190.4 51.2 192.3 49.5C194.2 47.8 195.2 45.4 195.2 42.4C195.2 39.5 194.1 37.2 192 35.5C189.9 33.8 187.1 33 183.8 33C175.5 33 171.3 37.2 171.3 45.6H155.8C155.9 37.2 158.5 30.9 163.8 26.8C169.1 22.7 175.9 20.7 184.2 20.7C189 20.7 193.4 21.5 197.4 23.1C201.4 24.7 204.6 27 207 30C209.4 33 210.6 36.6 210.6 40.7C210.6 44.7 209.3 48.3 206.6 51.3C203.9 54.3 200 56 195 56.3V57C200.5 57.7 204.9 59.5 208 62.5Z" fill="black"/>
<path d="M284.5 83C281.6 87.5 277.6 91 272.6 93.5C267.6 96 261.7 97.2 254.9 97.2C247.4 97.2 241 95.7 235.5 92.6C230 89.5 225.8 85.1 222.9 79.3C219.9 73.5 218.5 66.7 218.5 58.8C218.5 50.9 220 44.1 222.9 38.4C225.8 32.7 230.1 28.3 235.5 25.2C241 22.2 247.4 20.7 254.9 20.7C261.7 20.7 267.6 21.9 272.6 24.4C277.6 26.9 281.6 30.4 284.6 35C287.5 39.6 289.2 44.9 289.6 50.9H273.2C272.6 45.5 270.7 41.3 267.5 38.1C264.2 34.9 260 33.3 254.8 33.3C248.7 33.3 244 35.5 240.4 40C236.8 44.5 235.1 50.7 235.1 58.8C235.1 66.8 236.9 73.1 240.4 77.7C244 82.3 248.8 84.5 254.9 84.5C260.1 84.5 264.3 82.9 267.5 79.7C270.7 76.5 272.6 72.3 273.2 67H289.5C289.1 73.2 287.4 78.5 284.5 83Z" fill="black"/>
<path d="M349.7 49.6C351.5 52.7 352.4 56.5 352.4 60.8V95.6H337.5V65.3C337.5 60.9 336.5 57.6 334.4 55.2C332.3 52.9 329.3 51.7 325.3 51.7C321.3 51.7 318.1 53.1 315.7 55.9C313.3 58.7 312.1 62.5 312.1 67.4V95.6H297.2V22.5H312.1V58.1H312.7C313.5 52.6 315.7 48.2 319.4 44.9C323.1 41.6 327.5 40 332.4 40C336 40 339.3 40.8 342.4 42.5C345.4 44.1 347.9 46.5 349.7 49.6Z" fill="black"/>
<path d="M381.4 66.7C388.1 66.8 392.8 66.2 395.4 65C398 63.8 399.4 61.9 399.4 59.1C399.4 56.9 398.5 55.1 396.7 53.5C394.9 51.9 392 51.1 388.1 51.1C384.1 51.1 380.9 52.2 378.7 54.3C376.5 56.5 375.2 59.3 374.8 63H360.1C360.3 58.8 361.5 54.9 363.6 51.4C365.7 47.9 368.8 45.1 373 43C377.1 40.9 382.1 39.9 388 39.9C396.7 39.9 403.2 41.9 407.5 45.8C411.8 49.7 414 54.8 414 61V95.5H399.8L399.4 78.7H398.9C398.2 84.6 396 89.2 392.2 92.4C388.4 95.6 383.7 97.2 377.9 97.2C372.5 97.2 368.1 95.9 364.7 93.4C361.3 90.9 359.6 87.1 359.6 82.3C359.6 77.4 361.4 73.6 365 70.8C368.7 68 374.1 66.7 381.4 66.7ZM383 87.5C385.9 87.5 388.6 86.8 391.1 85.4C393.6 84 395.6 82.2 397.1 79.9C398.6 77.6 399.3 75.2 399.3 72.6V64.3H398.8C398.5 66.6 397.7 68.4 396.7 69.8C395.6 71.2 393.9 72.3 391.6 73C389.3 73.8 386 74.3 381.8 74.6C379.6 74.7 377.8 75.4 376.5 76.5C375.2 77.6 374.6 79.1 374.6 81C374.6 83 375.3 84.6 376.7 85.8C378.2 86.9 380.3 87.5 383 87.5Z" fill="black"/>
<path d="M443.2 49.5C444.8 46.4 447.1 44.2 450.1 42.8C453.1 41.4 457.3 40.7 462.6 40.7V53.2C456.7 53.5 452.2 54.3 448.9 55.6C445.6 56.9 443.2 58.8 441.6 61.6C440 64.4 439.1 68.3 438.9 73.4V95.7H424.1V41.8H438.5L438.9 62.5H439.5C440.4 56.8 441.6 52.6 443.2 49.5Z" fill="black"/>
<path d="M487 66.7C493.7 66.8 498.4 66.2 501 65C503.6 63.8 505 61.9 505 59.1C505 56.9 504.1 55.1 502.3 53.5C500.5 51.9 497.6 51.1 493.7 51.1C489.7 51.1 486.5 52.2 484.3 54.3C482.1 56.5 480.8 59.3 480.4 63H465.7C465.9 58.8 467.1 54.9 469.2 51.4C471.3 47.9 474.4 45.1 478.6 43C482.7 40.9 487.7 39.9 493.6 39.9C502.3 39.9 508.8 41.9 513.1 45.8C517.4 49.7 519.6 54.8 519.6 61V95.5H505.4L505 78.7H504.5C503.8 84.6 501.6 89.2 497.8 92.4C494 95.6 489.3 97.2 483.5 97.2C478.1 97.2 473.7 95.9 470.3 93.4C466.9 90.9 465.2 87.1 465.2 82.3C465.2 77.4 467 73.6 470.6 70.8C474.2 68 479.6 66.7 487 66.7ZM488.5 87.5C491.4 87.5 494.1 86.8 496.6 85.4C499.1 84 501.1 82.2 502.6 79.9C504.1 77.6 504.8 75.2 504.8 72.6V64.3H504.3C504 66.6 503.2 68.4 502.2 69.8C501.1 71.2 499.4 72.3 497.1 73C494.8 73.7 491.5 74.3 487.3 74.6C485.1 74.7 483.3 75.4 482 76.5C480.7 77.6 480.1 79.1 480.1 81C480.1 83 480.8 84.6 482.2 85.8C483.7 86.9 485.8 87.5 488.5 87.5Z" fill="black"/>
<path d="M540.3 43.4C544.6 41.1 549.4 40 554.7 40C559.9 40 564.4 41 568.3 42.9C572.2 44.8 575.3 47.6 577.6 51.2C579.9 54.8 581.1 59 581.3 63.8H566.6C566.5 59.8 565.4 56.7 563.3 54.6C561.1 52.5 558.3 51.4 554.7 51.4C550.7 51.4 547.5 52.9 545.2 55.8C542.9 58.8 541.8 62.9 541.8 68.1C541.8 74 542.9 78.4 545.2 81.5C547.5 84.6 550.6 86.1 554.7 86.1C558.5 86.1 561.4 85 563.4 82.8C565.4 80.6 566.5 77.5 566.6 73.3H581.3C581.2 78.5 579.9 82.8 577.5 86.4C575.1 90 571.9 92.7 567.9 94.6C563.9 96.4 559.5 97.4 554.7 97.4C549.4 97.4 544.7 96.3 540.4 94.2C536.1 92.1 532.8 88.8 530.4 84.5C527.9 80.1 526.7 74.8 526.7 68.4C526.7 62.6 527.9 57.6 530.3 53.4C532.8 48.9 536.1 45.6 540.3 43.4Z" fill="black"/>
<path d="M606.5 50.9V78C606.5 80.6 607 82.4 608.1 83.3C609.1 84.2 611.2 84.6 614.4 84.6C616.7 84.6 619.1 84.5 621.7 84.3V95.7C616.1 96.1 612.3 96.3 610.3 96.2C603.8 96.2 599 95.1 596.1 92.8C593.2 90.5 591.7 86.4 591.7 80.5V50.8H583.2V41.6H591.7V27.5H605.8L606.2 41.6H621.8V50.8H606.5V50.9Z" fill="black"/>
<path d="M639.9 71.6C640 76.1 641.4 79.6 644.1 82.2C646.8 84.8 650.3 86.1 654.5 86.1C657.8 86.1 660.7 85.2 663 83.5C665.3 81.8 666.8 79.6 667.5 76.9H680.5C679.9 81.3 678.3 85 675.7 88.1C673.1 91.2 669.8 93.5 666.1 95C662.3 96.5 658.5 97.3 654.5 97.3C645.6 97.3 638.5 94.8 633.4 89.8C628.2 84.8 625.7 77.7 625.7 68.5C625.7 62.9 626.8 57.9 629.1 53.6C631.4 49.3 634.6 46 638.8 43.6C643 41.3 647.9 40.1 653.5 40.1C659.1 40.1 663.9 41.3 668.1 43.8C672.3 46.2 675.5 49.5 677.7 53.7C679.9 57.8 681 62.5 681 67.5V71.8H639.9V71.6ZM639.9 63.6H666.4C666.1 59.7 664.8 56.7 662.4 54.5C660 52.3 656.9 51.2 653.3 51.2C649.5 51.2 646.4 52.3 644 54.4C641.5 56.6 640.2 59.6 639.9 63.6Z" fill="black"/>
<path d="M708.2 49.5C709.8 46.4 712.1 44.2 715.1 42.8C718.1 41.4 722.3 40.7 727.6 40.7V53.2C721.7 53.5 717.2 54.3 713.9 55.6C710.6 56.8 708.2 58.8 706.6 61.6C705 64.4 704.1 68.3 703.9 73.4V95.7H689.1V41.8H703.5L703.9 62.5H704.5C705.4 56.8 706.6 52.6 708.2 49.5Z" fill="black"/>
<path d="M101.1 26.1L76 49.9C70.2 55.4 61.2 55.4 55.4 49.9L30.3 26.1C20.5 16.8 27.1 0.299988 40.6 0.299988C40.6 14.1 51.8 25.4 65.7 25.4C79.5 25.4 90.8 14.2 90.8 0.299988C104.3 0.299988 110.9 16.8 101.1 26.1Z" fill="#F37021"/>
<path d="M76.6002 106.2L68.5002 72.6C66.6002 64.9 71.2002 57 78.8002 54.8L112 45C125 41.2 135.9 55.1 129.2 66.8C117.2 59.9 101.9 64 95.0002 76C88.1002 88 92.2002 103.3 104.2 110.2C97.3002 121.9 79.8002 119.4 76.6002 106.2Z" fill="#F37021"/>
<path d="M19.6001 44.8L52.7001 54.6C60.3001 56.9 64.8001 64.7 63.0001 72.4L54.9001 106C51.7001 119.1 34.2001 121.7 27.4001 110C39.4001 103.1 43.5001 87.8 36.6001 75.8C29.7001 63.8 14.4001 59.7 2.40011 66.6C-4.39989 54.9 6.60012 41 19.6001 44.8Z" fill="#F37021"/>
</svg>
